<mxfile host="app.diagrams.net" modified="2024-01-03T21:22:49.250Z" agent="Mozilla/5.0 (Macintosh; Intel Mac OS X 10_15_7) AppleWebKit/537.36 (KHTML, like Gecko) Chrome/120.0.0.0 Safari/537.36" etag="B-Lz3M_6YXTHNy3cdsIL" version="22.1.16" type="device">
  <diagram name="Page-1" id="G8GPoSDVaM6yutabJhsA">
    <mxGraphModel dx="1794" dy="2317" grid="0" gridSize="10" guides="1" tooltips="1" connect="1" arrows="1" fold="1" page="0" pageScale="1" pageWidth="850" pageHeight="1100" math="0" shadow="0">
      <root>
        <mxCell id="0" />
        <mxCell id="1" parent="0" />
        <mxCell id="2TdjcQlRFDeRvIDlJHPx-42" value="" style="rounded=0;whiteSpace=wrap;html=1;fillColor=default;movable=0;resizable=0;rotatable=0;deletable=0;editable=0;locked=1;connectable=0;" vertex="1" parent="1">
          <mxGeometry x="-212" y="-391" width="1383" height="589" as="geometry" />
        </mxCell>
        <mxCell id="2TdjcQlRFDeRvIDlJHPx-10" style="edgeStyle=orthogonalEdgeStyle;rounded=0;orthogonalLoop=1;jettySize=auto;html=1;" edge="1" parent="1" source="2TdjcQlRFDeRvIDlJHPx-1" target="2TdjcQlRFDeRvIDlJHPx-4">
          <mxGeometry relative="1" as="geometry" />
        </mxCell>
        <mxCell id="2TdjcQlRFDeRvIDlJHPx-1" value="Feature store&amp;nbsp;&lt;br&gt;SQL table" style="shape=cylinder3;whiteSpace=wrap;html=1;boundedLbl=1;backgroundOutline=1;size=15;fillColor=#CCFFE6;" vertex="1" parent="1">
          <mxGeometry x="-163" y="3.5" width="104" height="90" as="geometry" />
        </mxCell>
        <mxCell id="2TdjcQlRFDeRvIDlJHPx-2" value="" style="rounded=0;whiteSpace=wrap;html=1;fillColor=#CCFFFF;" vertex="1" parent="1">
          <mxGeometry x="20" y="-15" width="1090" height="127" as="geometry" />
        </mxCell>
        <mxCell id="2TdjcQlRFDeRvIDlJHPx-12" style="edgeStyle=orthogonalEdgeStyle;rounded=0;orthogonalLoop=1;jettySize=auto;html=1;entryX=0;entryY=0.5;entryDx=0;entryDy=0;" edge="1" parent="1" source="2TdjcQlRFDeRvIDlJHPx-3" target="2TdjcQlRFDeRvIDlJHPx-5">
          <mxGeometry relative="1" as="geometry" />
        </mxCell>
        <mxCell id="2TdjcQlRFDeRvIDlJHPx-3" value="Retrieve dataset" style="rounded=0;whiteSpace=wrap;html=1;" vertex="1" parent="1">
          <mxGeometry x="202" y="18.5" width="120" height="60" as="geometry" />
        </mxCell>
        <mxCell id="2TdjcQlRFDeRvIDlJHPx-11" style="edgeStyle=orthogonalEdgeStyle;rounded=0;orthogonalLoop=1;jettySize=auto;html=1;" edge="1" parent="1" source="2TdjcQlRFDeRvIDlJHPx-4" target="2TdjcQlRFDeRvIDlJHPx-3">
          <mxGeometry relative="1" as="geometry" />
        </mxCell>
        <mxCell id="2TdjcQlRFDeRvIDlJHPx-4" value="Data validation" style="rounded=0;whiteSpace=wrap;html=1;" vertex="1" parent="1">
          <mxGeometry x="49" y="18.5" width="120" height="60" as="geometry" />
        </mxCell>
        <mxCell id="2TdjcQlRFDeRvIDlJHPx-13" style="edgeStyle=orthogonalEdgeStyle;rounded=0;orthogonalLoop=1;jettySize=auto;html=1;exitX=1;exitY=0.5;exitDx=0;exitDy=0;entryX=0;entryY=0.5;entryDx=0;entryDy=0;" edge="1" parent="1" source="2TdjcQlRFDeRvIDlJHPx-5" target="2TdjcQlRFDeRvIDlJHPx-6">
          <mxGeometry relative="1" as="geometry" />
        </mxCell>
        <mxCell id="2TdjcQlRFDeRvIDlJHPx-5" value="Preprocess data" style="rounded=0;whiteSpace=wrap;html=1;" vertex="1" parent="1">
          <mxGeometry x="355" y="18.5" width="120" height="60" as="geometry" />
        </mxCell>
        <mxCell id="2TdjcQlRFDeRvIDlJHPx-15" style="edgeStyle=orthogonalEdgeStyle;rounded=0;orthogonalLoop=1;jettySize=auto;html=1;exitX=1;exitY=0.5;exitDx=0;exitDy=0;" edge="1" parent="1" source="2TdjcQlRFDeRvIDlJHPx-6" target="2TdjcQlRFDeRvIDlJHPx-8">
          <mxGeometry relative="1" as="geometry" />
        </mxCell>
        <mxCell id="2TdjcQlRFDeRvIDlJHPx-6" value="Train and compress model" style="rounded=0;whiteSpace=wrap;html=1;" vertex="1" parent="1">
          <mxGeometry x="508" y="18.5" width="120" height="60" as="geometry" />
        </mxCell>
        <mxCell id="2TdjcQlRFDeRvIDlJHPx-22" value="" style="edgeStyle=orthogonalEdgeStyle;rounded=0;orthogonalLoop=1;jettySize=auto;html=1;" edge="1" parent="1" source="2TdjcQlRFDeRvIDlJHPx-8" target="2TdjcQlRFDeRvIDlJHPx-20">
          <mxGeometry relative="1" as="geometry" />
        </mxCell>
        <mxCell id="2TdjcQlRFDeRvIDlJHPx-8" value="Run tests" style="rounded=0;whiteSpace=wrap;html=1;" vertex="1" parent="1">
          <mxGeometry x="661" y="18.5" width="120" height="60" as="geometry" />
        </mxCell>
        <mxCell id="2TdjcQlRFDeRvIDlJHPx-9" value="&lt;font style=&quot;font-size: 14px;&quot;&gt;Automated pipeline (runs weekly)&lt;/font&gt;" style="text;html=1;strokeColor=none;fillColor=none;align=center;verticalAlign=middle;whiteSpace=wrap;rounded=0;" vertex="1" parent="1">
          <mxGeometry x="25" y="-15" width="214" height="30" as="geometry" />
        </mxCell>
        <mxCell id="2TdjcQlRFDeRvIDlJHPx-37" style="edgeStyle=orthogonalEdgeStyle;rounded=0;orthogonalLoop=1;jettySize=auto;html=1;entryX=0.5;entryY=1;entryDx=0;entryDy=0;dashed=1;endArrow=none;endFill=0;" edge="1" parent="1" source="2TdjcQlRFDeRvIDlJHPx-14" target="2TdjcQlRFDeRvIDlJHPx-36">
          <mxGeometry relative="1" as="geometry" />
        </mxCell>
        <mxCell id="2TdjcQlRFDeRvIDlJHPx-14" value="Model registry&amp;nbsp;&lt;br&gt;MLFLow" style="shape=cylinder3;whiteSpace=wrap;html=1;boundedLbl=1;backgroundOutline=1;size=15;fillColor=#E6E6E6;" vertex="1" parent="1">
          <mxGeometry x="964.5" y="-190" width="97" height="72" as="geometry" />
        </mxCell>
        <mxCell id="2TdjcQlRFDeRvIDlJHPx-18" value="Metrics" style="text;html=1;strokeColor=none;fillColor=none;align=center;verticalAlign=middle;whiteSpace=wrap;rounded=0;" vertex="1" parent="1">
          <mxGeometry x="547" y="-78" width="107" height="30" as="geometry" />
        </mxCell>
        <mxCell id="2TdjcQlRFDeRvIDlJHPx-25" value="" style="edgeStyle=orthogonalEdgeStyle;rounded=0;orthogonalLoop=1;jettySize=auto;html=1;" edge="1" parent="1" source="2TdjcQlRFDeRvIDlJHPx-20" target="2TdjcQlRFDeRvIDlJHPx-24">
          <mxGeometry relative="1" as="geometry" />
        </mxCell>
        <mxCell id="2TdjcQlRFDeRvIDlJHPx-20" value="Tests pass?" style="strokeWidth=2;html=1;shape=mxgraph.flowchart.decision;whiteSpace=wrap;" vertex="1" parent="1">
          <mxGeometry x="827" y="7.5" width="88" height="82" as="geometry" />
        </mxCell>
        <mxCell id="2TdjcQlRFDeRvIDlJHPx-24" value="Promote to production" style="rounded=0;whiteSpace=wrap;html=1;" vertex="1" parent="1">
          <mxGeometry x="953" y="18.5" width="120" height="60" as="geometry" />
        </mxCell>
        <mxCell id="2TdjcQlRFDeRvIDlJHPx-26" value="Yes" style="text;html=1;strokeColor=none;fillColor=none;align=center;verticalAlign=middle;whiteSpace=wrap;rounded=0;" vertex="1" parent="1">
          <mxGeometry x="902" y="18.5" width="60" height="30" as="geometry" />
        </mxCell>
        <mxCell id="2TdjcQlRFDeRvIDlJHPx-28" value="ML Metadata store&amp;nbsp;&lt;br&gt;MLFLow" style="shape=cylinder3;whiteSpace=wrap;html=1;boundedLbl=1;backgroundOutline=1;size=15;fillColor=#E6E6E6;" vertex="1" parent="1">
          <mxGeometry x="510.75" y="-190" width="114.5" height="79" as="geometry" />
        </mxCell>
        <mxCell id="2TdjcQlRFDeRvIDlJHPx-33" value="" style="endArrow=classic;dashed=1;html=1;rounded=0;exitX=0.5;exitY=0;exitDx=0;exitDy=0;entryX=0.5;entryY=1;entryDx=0;entryDy=0;entryPerimeter=0;endFill=1;" edge="1" parent="1" source="2TdjcQlRFDeRvIDlJHPx-6" target="2TdjcQlRFDeRvIDlJHPx-28">
          <mxGeometry width="50" height="50" relative="1" as="geometry">
            <mxPoint x="641" y="138" as="sourcePoint" />
            <mxPoint x="691" y="88" as="targetPoint" />
          </mxGeometry>
        </mxCell>
        <mxCell id="2TdjcQlRFDeRvIDlJHPx-34" value="" style="endArrow=classic;dashed=1;html=1;rounded=0;exitX=0.5;exitY=0;exitDx=0;exitDy=0;entryX=0.5;entryY=1;entryDx=0;entryDy=0;entryPerimeter=0;endFill=1;" edge="1" parent="1" target="2TdjcQlRFDeRvIDlJHPx-14">
          <mxGeometry width="50" height="50" relative="1" as="geometry">
            <mxPoint x="1013" y="19" as="sourcePoint" />
            <mxPoint x="1013" y="-111" as="targetPoint" />
          </mxGeometry>
        </mxCell>
        <mxCell id="2TdjcQlRFDeRvIDlJHPx-35" value="Model" style="text;html=1;strokeColor=none;fillColor=none;align=center;verticalAlign=middle;whiteSpace=wrap;rounded=0;" vertex="1" parent="1">
          <mxGeometry x="992" y="-81" width="107" height="30" as="geometry" />
        </mxCell>
        <mxCell id="2TdjcQlRFDeRvIDlJHPx-39" style="edgeStyle=orthogonalEdgeStyle;rounded=0;orthogonalLoop=1;jettySize=auto;html=1;entryX=1;entryY=0.5;entryDx=0;entryDy=0;" edge="1" parent="1" source="2TdjcQlRFDeRvIDlJHPx-36" target="2TdjcQlRFDeRvIDlJHPx-38">
          <mxGeometry relative="1" as="geometry" />
        </mxCell>
        <mxCell id="2TdjcQlRFDeRvIDlJHPx-40" value="Use model" style="edgeLabel;html=1;align=center;verticalAlign=middle;resizable=0;points=[];" vertex="1" connectable="0" parent="2TdjcQlRFDeRvIDlJHPx-39">
          <mxGeometry x="0.2271" y="-4" relative="1" as="geometry">
            <mxPoint x="14" y="-8" as="offset" />
          </mxGeometry>
        </mxCell>
        <mxCell id="2TdjcQlRFDeRvIDlJHPx-36" value="Champion model" style="rounded=0;whiteSpace=wrap;html=1;fillColor=#FFFFCC;" vertex="1" parent="1">
          <mxGeometry x="953" y="-332" width="120" height="60" as="geometry" />
        </mxCell>
        <mxCell id="2TdjcQlRFDeRvIDlJHPx-38" value="Backend service" style="shape=hexagon;perimeter=hexagonPerimeter2;whiteSpace=wrap;html=1;fixedSize=1;fillColor=#E5CCFF;" vertex="1" parent="1">
          <mxGeometry x="707" y="-342" width="120" height="80" as="geometry" />
        </mxCell>
        <mxCell id="2TdjcQlRFDeRvIDlJHPx-46" style="edgeStyle=orthogonalEdgeStyle;rounded=0;orthogonalLoop=1;jettySize=auto;html=1;entryX=0.375;entryY=0;entryDx=0;entryDy=0;startArrow=classic;startFill=1;" edge="1" parent="1" source="2TdjcQlRFDeRvIDlJHPx-43" target="2TdjcQlRFDeRvIDlJHPx-38">
          <mxGeometry relative="1" as="geometry">
            <Array as="points">
              <mxPoint x="752" y="-461" />
              <mxPoint x="752" y="-461" />
            </Array>
          </mxGeometry>
        </mxCell>
        <mxCell id="2TdjcQlRFDeRvIDlJHPx-47" value="/api/predict" style="edgeLabel;html=1;align=center;verticalAlign=middle;resizable=0;points=[];" vertex="1" connectable="0" parent="2TdjcQlRFDeRvIDlJHPx-46">
          <mxGeometry x="-0.1207" relative="1" as="geometry">
            <mxPoint x="-34" y="-4" as="offset" />
          </mxGeometry>
        </mxCell>
        <mxCell id="2TdjcQlRFDeRvIDlJHPx-43" value="Frontend" style="ellipse;whiteSpace=wrap;html=1;aspect=fixed;fillColor=#FF99CC;" vertex="1" parent="1">
          <mxGeometry x="724" y="-581" width="80" height="80" as="geometry" />
        </mxCell>
        <mxCell id="2TdjcQlRFDeRvIDlJHPx-48" style="edgeStyle=orthogonalEdgeStyle;rounded=0;orthogonalLoop=1;jettySize=auto;html=1;entryX=0.375;entryY=0;entryDx=0;entryDy=0;startArrow=classic;startFill=1;" edge="1" parent="1">
          <mxGeometry relative="1" as="geometry">
            <mxPoint x="776" y="-503" as="sourcePoint" />
            <mxPoint x="776" y="-342" as="targetPoint" />
            <Array as="points">
              <mxPoint x="776" y="-461" />
              <mxPoint x="776" y="-461" />
            </Array>
          </mxGeometry>
        </mxCell>
        <mxCell id="2TdjcQlRFDeRvIDlJHPx-49" value="/api/feedback" style="edgeLabel;html=1;align=center;verticalAlign=middle;resizable=0;points=[];" vertex="1" connectable="0" parent="2TdjcQlRFDeRvIDlJHPx-48">
          <mxGeometry x="-0.1207" relative="1" as="geometry">
            <mxPoint x="35" y="-4" as="offset" />
          </mxGeometry>
        </mxCell>
        <mxCell id="2TdjcQlRFDeRvIDlJHPx-54" style="edgeStyle=orthogonalEdgeStyle;rounded=0;orthogonalLoop=1;jettySize=auto;html=1;" edge="1" parent="1" source="2TdjcQlRFDeRvIDlJHPx-50" target="2TdjcQlRFDeRvIDlJHPx-1">
          <mxGeometry relative="1" as="geometry" />
        </mxCell>
        <mxCell id="2TdjcQlRFDeRvIDlJHPx-55" value="Labeled input and output data" style="edgeLabel;html=1;align=center;verticalAlign=middle;resizable=0;points=[];" vertex="1" connectable="0" parent="2TdjcQlRFDeRvIDlJHPx-54">
          <mxGeometry x="-0.1347" y="2" relative="1" as="geometry">
            <mxPoint x="-2" y="-6" as="offset" />
          </mxGeometry>
        </mxCell>
        <mxCell id="2TdjcQlRFDeRvIDlJHPx-50" value="Predict endpoint logs&amp;nbsp;&lt;br&gt;SQL table" style="shape=cylinder3;whiteSpace=wrap;html=1;boundedLbl=1;backgroundOutline=1;size=15;fillColor=#CCFFE6;" vertex="1" parent="1">
          <mxGeometry x="-163" y="-347" width="104" height="90" as="geometry" />
        </mxCell>
        <mxCell id="2TdjcQlRFDeRvIDlJHPx-51" style="edgeStyle=orthogonalEdgeStyle;rounded=0;orthogonalLoop=1;jettySize=auto;html=1;entryX=1;entryY=0.5;entryDx=0;entryDy=0;entryPerimeter=0;" edge="1" parent="1" source="2TdjcQlRFDeRvIDlJHPx-38" target="2TdjcQlRFDeRvIDlJHPx-50">
          <mxGeometry relative="1" as="geometry" />
        </mxCell>
        <mxCell id="2TdjcQlRFDeRvIDlJHPx-56" value="User input, model predictions, feedback, etc" style="edgeLabel;html=1;align=center;verticalAlign=middle;resizable=0;points=[];" vertex="1" connectable="0" parent="1">
          <mxGeometry x="372.0000000000002" y="-315.9988235294115" as="geometry" />
        </mxCell>
        <mxCell id="2TdjcQlRFDeRvIDlJHPx-58" style="edgeStyle=orthogonalEdgeStyle;rounded=0;orthogonalLoop=1;jettySize=auto;html=1;startArrow=classic;startFill=1;" edge="1" parent="1" source="2TdjcQlRFDeRvIDlJHPx-57" target="2TdjcQlRFDeRvIDlJHPx-38">
          <mxGeometry relative="1" as="geometry" />
        </mxCell>
        <mxCell id="2TdjcQlRFDeRvIDlJHPx-57" value="Ping server flow (runs daily)&amp;nbsp;" style="ellipse;whiteSpace=wrap;html=1;aspect=fixed;fillColor=#CCFFFF;" vertex="1" parent="1">
          <mxGeometry x="727" y="-206" width="80" height="80" as="geometry" />
        </mxCell>
        <mxCell id="2TdjcQlRFDeRvIDlJHPx-62" value="No" style="edgeStyle=orthogonalEdgeStyle;rounded=0;orthogonalLoop=1;jettySize=auto;html=1;" edge="1" parent="1" source="2TdjcQlRFDeRvIDlJHPx-59" target="2TdjcQlRFDeRvIDlJHPx-61">
          <mxGeometry x="-0.4815" y="20" relative="1" as="geometry">
            <mxPoint as="offset" />
          </mxGeometry>
        </mxCell>
        <mxCell id="2TdjcQlRFDeRvIDlJHPx-59" value="Tests pass?" style="strokeWidth=2;html=1;shape=mxgraph.flowchart.decision;whiteSpace=wrap;" vertex="1" parent="1">
          <mxGeometry x="835" y="-206" width="88" height="82" as="geometry" />
        </mxCell>
        <mxCell id="2TdjcQlRFDeRvIDlJHPx-60" style="edgeStyle=orthogonalEdgeStyle;rounded=0;orthogonalLoop=1;jettySize=auto;html=1;entryX=0;entryY=0.5;entryDx=0;entryDy=0;entryPerimeter=0;" edge="1" parent="1" source="2TdjcQlRFDeRvIDlJHPx-57" target="2TdjcQlRFDeRvIDlJHPx-59">
          <mxGeometry relative="1" as="geometry" />
        </mxCell>
        <mxCell id="2TdjcQlRFDeRvIDlJHPx-61" value="Send email" style="rounded=0;whiteSpace=wrap;html=1;" vertex="1" parent="1">
          <mxGeometry x="821" y="-99" width="120" height="60" as="geometry" />
        </mxCell>
      </root>
    </mxGraphModel>
  </diagram>
</mxfile>
